<?xml version="1.0" encoding="UTF-8" standalone="no"?>
<svg width="200px" height="200px" viewBox="0 0 200 200" version="1.1" xmlns="http://www.w3.org/2000/svg" xmlns:xlink="http://www.w3.org/1999/xlink" xmlns:sketch="http://www.bohemiancoding.com/sketch/ns">
    <!-- Generator: ${EXECUTABLE_NAME} ${SKETCH_TOOL_VERSION} (101) - http://www.bohemiancoding.com/sketch -->
    <title>logo</title>
    <description>Created with ${EXECUTABLE_NAME}.</description>
    <defs></defs>
    <g id="Page-1" stroke="none" stroke-width="1" fill="none" fill-rule="evenodd" sketch:type="MSPage">
        <g id="logo" sketch:type="MSArtboardGroup" fill="#7ED321">
            <path d="M100.5,188 C148.824916,188 188,148.824916 188,100.5 C188,52.1750844 148.824916,13 100.5,13 C52.1750844,13 13,52.1750844 13,100.5 C13,148.824916 52.1750844,188 100.5,188 Z M100.5,158.833333 C129.939316,158.833333 153.804598,134.968052 153.804598,105.528736 C153.804598,105.528736 47.1954023,105.528735 47.1954023,105.528736 C47.1954021,134.968052 71.0606836,158.833333 100.5,158.833333 Z M68.316092,93.4597701 C77.7588916,93.4597701 85.4137931,85.8048686 85.4137931,76.362069 C85.4137931,66.9192694 77.7588916,59.2643678 68.316092,59.2643678 C58.8732924,59.2643678 51.2183908,66.9192694 51.2183908,76.362069 C51.2183908,85.8048686 58.8732924,93.4597701 68.316092,93.4597701 Z M130.672414,93.4597701 C140.115213,93.4597701 147.770115,85.8048686 147.770115,76.362069 C147.770115,66.9192694 140.115213,59.2643678 130.672414,59.2643678 C121.229614,59.2643678 113.574713,66.9192694 113.574713,76.362069 C113.574713,85.8048686 121.229614,93.4597701 130.672414,93.4597701 Z" id="oval" sketch:type="MSShapeGroup"></path>
        </g>
    </g>
</svg>